# xmcd
#
# Track frame offsets: 
#        150
#        20920
#        32863
#        49393
#        69912
#        82987
#        95486
#        118736
#        134547
#        147556
#        163130
#        176100
#        206345
#        230948
#        250748
#        272632
#        290239
#
# Disc length: 4052 seconds
#
# Revision: 4
# Processed by: cddbd v1.5.2PL0 Copyright (c) Steve Scherf et al.
# Submitted via: ExactAudioCopyFreeDBPlugin 1.0
#
DISCID=0f0fd211
DTITLE=Various Artist - Valentine Lovesongs Jazz
DYEAR=2006
DGENRE=Jazz
TTITLE0=Norah Jones - Day Is Done  with Charlie Hunter
TTITLE1=Nina Simone - Falling in Love Again
TTITLE2=Molly Johnson - He's Got My Heart
TTITLE3=Dianne Reeves - We'll Be Together Again
TTITLE4=Sarah Vaughan - Fly Me To Moon
TTITLE5=Coleman Hawkins - Autumn Leaves
TTITLE6=Hank Mobley - The Good Life
TTITLE7=Miles Davis - I Waited For You
TTITLE8=Julie London - 'Round Midnight
TTITLE9=Lena Horne - Moon River
TTITLE10=Nancy Wilson - The Very Thought Of You
TTITLE11=Everette Harp - Love You To The Letter
TTITLE12=Kurt Elling - Never Say Goodbye
TTITLE13=Holly Cole and Bob Belden - Purple Rain
TTITLE14=Cassandra Wilson - Harvest Moon
TTITLE15=Keri Noble - A Dream About You
TTITLE16=Lou Rawls - If I Were A Magican
EXTD=YEAR: 2006
EXTT0=
EXTT1=
EXTT2=
EXTT3=
EXTT4=
EXTT5=
EXTT6=
EXTT7=
EXTT8=
EXTT9=
EXTT10=
EXTT11=
EXTT12=
EXTT13=
EXTT14=
EXTT15=
EXTT16=
PLAYORDER=
